<?xml version="1.0"?>
<svg xmlns="http://www.w3.org/2000/svg" width="722.70" height="578.16" viewBox="0,0,722.70,578.16">
<desc>R SVG Plot!</desc>
<rect width="100%" height="100%" style="fill:#FFFFFF"/>
<rect x="379.32" y="164.48" width="66.91" height="35.60" style="stroke-width:1;stroke:#ADD8E6;fill:#FF8000;stroke-opacity:1.000000;fill-opacity:1.000000" />
<text transform="translate(397.23,176.90) "  style="font-size:6" >GO:0001871</text>
<text transform="translate(392.07,182.28) "  style="font-size:6" >pattern binding</text>
<text transform="translate(401.95,187.66) "  style="font-size:6" >0.01489</text>
<text transform="translate(406.29,193.04) "  style="font-size:6" >2 / 2</text>
<polygon points="276.48 , 39.88 277.15 , 36.32 277.83 , 34.87 278.51 , 33.78 279.18 , 32.87 279.86 , 32.09 280.53 , 31.39 281.21 , 30.76 281.88 , 30.18 282.56 , 29.65 283.24 , 29.15 283.91 , 28.69 284.59 , 28.26 285.26 , 27.86 285.94 , 27.48 286.61 , 27.12 287.29 , 26.78 287.97 , 26.46 288.64 , 26.15 289.32 , 25.86 289.99 , 25.59 290.67 , 25.33 291.35 , 25.08 292.02 , 24.85 292.70 , 24.63 293.37 , 24.42 294.05 , 24.22 294.72 , 24.03 295.40 , 23.85 296.08 , 23.68 296.75 , 23.52 297.43 , 23.37 298.10 , 23.23 298.78 , 23.10 299.46 , 22.98 300.13 , 22.86 300.81 , 22.76 301.48 , 22.66 302.16 , 22.57 302.83 , 22.49 303.51 , 22.41 304.19 , 22.35 304.86 , 22.29 305.54 , 22.24 306.21 , 22.19 306.89 , 22.16 307.57 , 22.13 308.24 , 22.11 308.92 , 22.09 309.59 , 22.08 310.27 , 22.08 310.94 , 22.09 311.62 , 22.11 312.30 , 22.13 312.97 , 22.16 313.65 , 22.19 314.32 , 22.24 315.00 , 22.29 315.68 , 22.35 316.35 , 22.41 317.03 , 22.49 317.70 , 22.57 318.38 , 22.66 319.05 , 22.76 319.73 , 22.86 320.41 , 22.98 321.08 , 23.10 321.76 , 23.23 322.43 , 23.37 323.11 , 23.52 323.79 , 23.68 324.46 , 23.85 325.14 , 24.03 325.81 , 24.22 326.49 , 24.42 327.16 , 24.63 327.84 , 24.85 328.52 , 25.08 329.19 , 25.33 329.87 , 25.59 330.54 , 25.86 331.22 , 26.15 331.90 , 26.46 332.57 , 26.78 333.25 , 27.12 333.92 , 27.48 334.60 , 27.86 335.27 , 28.26 335.95 , 28.69 336.63 , 29.15 337.30 , 29.65 337.98 , 30.18 338.65 , 30.76 339.33 , 31.39 340.01 , 32.09 340.68 , 32.87 341.36 , 33.78 342.03 , 34.87 342.71 , 36.32 343.38 , 39.88 343.38 , 39.88 342.71 , 43.44 342.03 , 44.89 341.36 , 45.98 340.68 , 46.89 340.01 , 47.68 339.33 , 48.38 338.65 , 49.01 337.98 , 49.58 337.30 , 50.12 336.63 , 50.61 335.95 , 51.07 335.27 , 51.50 334.60 , 51.91 333.92 , 52.29 333.25 , 52.65 332.57 , 52.99 331.90 , 53.31 331.22 , 53.61 330.54 , 53.90 329.87 , 54.18 329.19 , 54.44 328.52 , 54.68 327.84 , 54.92 327.16 , 55.14 326.49 , 55.35 325.81 , 55.55 325.14 , 55.74 324.46 , 55.92 323.79 , 56.08 323.11 , 56.24 322.43 , 56.39 321.76 , 56.53 321.08 , 56.66 320.41 , 56.79 319.73 , 56.90 319.05 , 57.01 318.38 , 57.11 317.70 , 57.20 317.03 , 57.28 316.35 , 57.35 315.68 , 57.42 315.00 , 57.48 314.32 , 57.53 313.65 , 57.57 312.97 , 57.61 312.30 , 57.64 311.62 , 57.66 310.94 , 57.67 310.27 , 57.68 309.59 , 57.68 308.92 , 57.67 308.24 , 57.66 307.57 , 57.64 306.89 , 57.61 306.21 , 57.57 305.54 , 57.53 304.86 , 57.48 304.19 , 57.42 303.51 , 57.35 302.83 , 57.28 302.16 , 57.20 301.48 , 57.11 300.81 , 57.01 300.13 , 56.90 299.46 , 56.79 298.78 , 56.66 298.10 , 56.53 297.43 , 56.39 296.75 , 56.24 296.08 , 56.08 295.40 , 55.92 294.72 , 55.74 294.05 , 55.55 293.37 , 55.35 292.70 , 55.14 292.02 , 54.92 291.35 , 54.68 290.67 , 54.44 289.99 , 54.18 289.32 , 53.90 288.64 , 53.61 287.97 , 53.31 287.29 , 52.99 286.61 , 52.65 285.94 , 52.29 285.26 , 51.91 284.59 , 51.50 283.91 , 51.07 283.24 , 50.61 282.56 , 50.12 281.88 , 49.58 281.21 , 49.01 280.53 , 48.38 279.86 , 47.68 279.18 , 46.89 278.51 , 45.98 277.83 , 44.89 277.15 , 43.44 276.48 , 39.88 " style="stroke-width:1;stroke:#FFFFFF;fill:#FFFF80;stroke-opacity:0.000000;fill-opacity:1.000000" />
<polyline points="276.48 , 39.88 277.15 , 36.32 277.83 , 34.87 278.51 , 33.78 279.18 , 32.87 279.86 , 32.09 280.53 , 31.39 281.21 , 30.76 281.88 , 30.18 282.56 , 29.65 283.24 , 29.15 283.91 , 28.69 284.59 , 28.26 285.26 , 27.86 285.94 , 27.48 286.61 , 27.12 287.29 , 26.78 287.97 , 26.46 288.64 , 26.15 289.32 , 25.86 289.99 , 25.59 290.67 , 25.33 291.35 , 25.08 292.02 , 24.85 292.70 , 24.63 293.37 , 24.42 294.05 , 24.22 294.72 , 24.03 295.40 , 23.85 296.08 , 23.68 296.75 , 23.52 297.43 , 23.37 298.10 , 23.23 298.78 , 23.10 299.46 , 22.98 300.13 , 22.86 300.81 , 22.76 301.48 , 22.66 302.16 , 22.57 302.83 , 22.49 303.51 , 22.41 304.19 , 22.35 304.86 , 22.29 305.54 , 22.24 306.21 , 22.19 306.89 , 22.16 307.57 , 22.13 308.24 , 22.11 308.92 , 22.09 309.59 , 22.08 310.27 , 22.08 310.94 , 22.09 311.62 , 22.11 312.30 , 22.13 312.97 , 22.16 313.65 , 22.19 314.32 , 22.24 315.00 , 22.29 315.68 , 22.35 316.35 , 22.41 317.03 , 22.49 317.70 , 22.57 318.38 , 22.66 319.05 , 22.76 319.73 , 22.86 320.41 , 22.98 321.08 , 23.10 321.76 , 23.23 322.43 , 23.37 323.11 , 23.52 323.79 , 23.68 324.46 , 23.85 325.14 , 24.03 325.81 , 24.22 326.49 , 24.42 327.16 , 24.63 327.84 , 24.85 328.52 , 25.08 329.19 , 25.33 329.87 , 25.59 330.54 , 25.86 331.22 , 26.15 331.90 , 26.46 332.57 , 26.78 333.25 , 27.12 333.92 , 27.48 334.60 , 27.86 335.27 , 28.26 335.95 , 28.69 336.63 , 29.15 337.30 , 29.65 337.98 , 30.18 338.65 , 30.76 339.33 , 31.39 340.01 , 32.09 340.68 , 32.87 341.36 , 33.78 342.03 , 34.87 342.71 , 36.32 343.38 , 39.88 343.38 , 39.88 342.71 , 43.44 342.03 , 44.89 341.36 , 45.98 340.68 , 46.89 340.01 , 47.68 339.33 , 48.38 338.65 , 49.01 337.98 , 49.58 337.30 , 50.12 336.63 , 50.61 335.95 , 51.07 335.27 , 51.50 334.60 , 51.91 333.92 , 52.29 333.25 , 52.65 332.57 , 52.99 331.90 , 53.31 331.22 , 53.61 330.54 , 53.90 329.87 , 54.18 329.19 , 54.44 328.52 , 54.68 327.84 , 54.92 327.16 , 55.14 326.49 , 55.35 325.81 , 55.55 325.14 , 55.74 324.46 , 55.92 323.79 , 56.08 323.11 , 56.24 322.43 , 56.39 321.76 , 56.53 321.08 , 56.66 320.41 , 56.79 319.73 , 56.90 319.05 , 57.01 318.38 , 57.11 317.70 , 57.20 317.03 , 57.28 316.35 , 57.35 315.68 , 57.42 315.00 , 57.48 314.32 , 57.53 313.65 , 57.57 312.97 , 57.61 312.30 , 57.64 311.62 , 57.66 310.94 , 57.67 310.27 , 57.68 309.59 , 57.68 308.92 , 57.67 308.24 , 57.66 307.57 , 57.64 306.89 , 57.61 306.21 , 57.57 305.54 , 57.53 304.86 , 57.48 304.19 , 57.42 303.51 , 57.35 302.83 , 57.28 302.16 , 57.20 301.48 , 57.11 300.81 , 57.01 300.13 , 56.90 299.46 , 56.79 298.78 , 56.66 298.10 , 56.53 297.43 , 56.39 296.75 , 56.24 296.08 , 56.08 295.40 , 55.92 294.72 , 55.74 294.05 , 55.55 293.37 , 55.35 292.70 , 55.14 292.02 , 54.92 291.35 , 54.68 290.67 , 54.44 289.99 , 54.18 289.32 , 53.90 288.64 , 53.61 287.97 , 53.31 287.29 , 52.99 286.61 , 52.65 285.94 , 52.29 285.26 , 51.91 284.59 , 51.50 283.91 , 51.07 283.24 , 50.61 282.56 , 50.12 281.88 , 49.58 281.21 , 49.01 280.53 , 48.38 279.86 , 47.68 279.18 , 46.89 278.51 , 45.98 277.83 , 44.89 277.15 , 43.44 276.48 , 39.88 276.48 , 39.88 " style="stroke-width:1;stroke:#000000;fill:#000000;stroke-opacity:1.000000;fill-opacity:0.000000"/>
<text transform="translate(292.88,34.50) "  style="font-size:6" >GO:0003674</text>
<text transform="translate(284.70,39.88) "  style="font-size:6" >molecular_function</text>
<text transform="translate(299.11,45.26) "  style="font-size:6" >1.00000</text>
<text transform="translate(298.50,50.64) "  style="font-size:6" >39 / 316</text>
<rect x="584.99" y="164.48" width="66.91" height="35.60" style="stroke-width:1;stroke:#ADD8E6;fill:#FF8000;stroke-opacity:1.000000;fill-opacity:1.000000" />
<text transform="translate(601.40,176.90) "  style="font-size:6" >GO:0003682</text>
<text transform="translate(594.01,182.28) "  style="font-size:6" >chromatin binding</text>
<text transform="translate(607.63,187.66) "  style="font-size:6" >0.01489</text>
<text transform="translate(611.96,193.04) "  style="font-size:6" >2 / 2</text>
<rect x="173.64" y="93.28" width="66.91" height="35.60" style="stroke-width:1;stroke:#ADD8E6;fill:#FF8000;stroke-opacity:1.000000;fill-opacity:1.000000" />
<text transform="translate(190.04,105.70) "  style="font-size:6" >GO:0003824</text>
<text transform="translate(184.78,111.08) "  style="font-size:6" >catalytic activity</text>
<text transform="translate(196.28,116.46) "  style="font-size:6" >0.00789</text>
<text transform="translate(195.66,121.84) "  style="font-size:6" >27 / 158</text>
<rect x="173.64" y="520.48" width="66.91" height="35.60" style="stroke-width:1;stroke:#ADD8E6;fill:#FF8000;stroke-opacity:1.000000;fill-opacity:1.000000" />
<text transform="translate(190.04,532.90) "  style="font-size:6" >GO:0003985</text>
<text transform="translate(175.99,538.28) "  style="font-size:6" >acetyl-CoA C-acetylt...</text>
<text transform="translate(196.28,543.66) "  style="font-size:6" >0.01489</text>
<text transform="translate(200.61,549.04) "  style="font-size:6" >2 / 2</text>
<rect x="276.48" y="449.28" width="66.91" height="35.60" style="stroke-width:1;stroke:#ADD8E6;fill:#FF8000;stroke-opacity:1.000000;fill-opacity:1.000000" />
<text transform="translate(292.88,461.70) "  style="font-size:6" >GO:0003988</text>
<text transform="translate(278.88,467.08) "  style="font-size:6" >acetyl-CoA C-acyltra...</text>
<text transform="translate(299.11,472.46) "  style="font-size:6" >0.01489</text>
<text transform="translate(303.45,477.84) "  style="font-size:6" >2 / 2</text>
<polygon points="379.32 , 111.08 379.99 , 107.52 380.67 , 106.07 381.34 , 104.98 382.02 , 104.07 382.69 , 103.29 383.37 , 102.59 384.05 , 101.96 384.72 , 101.38 385.40 , 100.85 386.07 , 100.35 386.75 , 99.89 387.43 , 99.46 388.10 , 99.06 388.78 , 98.68 389.45 , 98.32 390.13 , 97.98 390.80 , 97.66 391.48 , 97.35 392.16 , 97.06 392.83 , 96.79 393.51 , 96.53 394.18 , 96.28 394.86 , 96.05 395.54 , 95.83 396.21 , 95.62 396.89 , 95.42 397.56 , 95.23 398.24 , 95.05 398.91 , 94.88 399.59 , 94.72 400.27 , 94.57 400.94 , 94.43 401.62 , 94.30 402.29 , 94.18 402.97 , 94.06 403.65 , 93.96 404.32 , 93.86 405.00 , 93.77 405.67 , 93.69 406.35 , 93.61 407.02 , 93.55 407.70 , 93.49 408.38 , 93.44 409.05 , 93.39 409.73 , 93.36 410.40 , 93.33 411.08 , 93.30 411.76 , 93.29 412.43 , 93.28 413.11 , 93.28 413.78 , 93.29 414.46 , 93.30 415.13 , 93.33 415.81 , 93.36 416.49 , 93.39 417.16 , 93.44 417.84 , 93.49 418.51 , 93.55 419.19 , 93.61 419.87 , 93.69 420.54 , 93.77 421.22 , 93.86 421.89 , 93.96 422.57 , 94.06 423.24 , 94.18 423.92 , 94.30 424.60 , 94.43 425.27 , 94.57 425.95 , 94.72 426.62 , 94.88 427.30 , 95.05 427.98 , 95.23 428.65 , 95.42 429.33 , 95.62 430.00 , 95.83 430.68 , 96.05 431.35 , 96.28 432.03 , 96.53 432.71 , 96.79 433.38 , 97.06 434.06 , 97.35 434.73 , 97.66 435.41 , 97.98 436.09 , 98.32 436.76 , 98.68 437.44 , 99.06 438.11 , 99.46 438.79 , 99.89 439.46 , 100.35 440.14 , 100.85 440.82 , 101.38 441.49 , 101.96 442.17 , 102.59 442.84 , 103.29 443.52 , 104.07 444.19 , 104.98 444.87 , 106.07 445.55 , 107.52 446.22 , 111.08 446.22 , 111.08 445.55 , 114.64 444.87 , 116.09 444.19 , 117.18 443.52 , 118.09 442.84 , 118.88 442.17 , 119.58 441.49 , 120.21 440.82 , 120.78 440.14 , 121.32 439.46 , 121.81 438.79 , 122.27 438.11 , 122.70 437.44 , 123.11 436.76 , 123.49 436.09 , 123.85 435.41 , 124.19 434.73 , 124.51 434.06 , 124.81 433.38 , 125.10 432.71 , 125.38 432.03 , 125.64 431.35 , 125.88 430.68 , 126.12 430.00 , 126.34 429.33 , 126.55 428.65 , 126.75 427.98 , 126.94 427.30 , 127.11 426.62 , 127.28 425.95 , 127.44 425.27 , 127.59 424.60 , 127.73 423.92 , 127.86 423.24 , 127.99 422.57 , 128.10 421.89 , 128.21 421.22 , 128.30 420.54 , 128.39 419.87 , 128.48 419.19 , 128.55 418.51 , 128.62 417.84 , 128.68 417.16 , 128.73 416.49 , 128.77 415.81 , 128.81 415.13 , 128.84 414.46 , 128.86 413.78 , 128.87 413.11 , 128.88 412.43 , 128.88 411.76 , 128.87 411.08 , 128.86 410.40 , 128.84 409.73 , 128.81 409.05 , 128.77 408.38 , 128.73 407.70 , 128.68 407.02 , 128.62 406.35 , 128.55 405.67 , 128.48 405.00 , 128.39 404.32 , 128.30 403.65 , 128.21 402.97 , 128.10 402.29 , 127.99 401.62 , 127.86 400.94 , 127.73 400.27 , 127.59 399.59 , 127.44 398.91 , 127.28 398.24 , 127.11 397.56 , 126.94 396.89 , 126.75 396.21 , 126.55 395.54 , 126.34 394.86 , 126.12 394.18 , 125.88 393.51 , 125.64 392.83 , 125.38 392.16 , 125.10 391.48 , 124.81 390.80 , 124.51 390.13 , 124.19 389.45 , 123.85 388.78 , 123.49 388.10 , 123.11 387.43 , 122.70 386.75 , 122.27 386.07 , 121.81 385.40 , 121.32 384.72 , 120.78 384.05 , 120.21 383.37 , 119.58 382.69 , 118.88 382.02 , 118.09 381.34 , 117.18 380.67 , 116.09 379.99 , 114.64 379.32 , 111.08 " style="stroke-width:1;stroke:#FFFFFF;fill:#FFFF00;stroke-opacity:0.000000;fill-opacity:1.000000" />
<polyline points="379.32 , 111.08 379.99 , 107.52 380.67 , 106.07 381.34 , 104.98 382.02 , 104.07 382.69 , 103.29 383.37 , 102.59 384.05 , 101.96 384.72 , 101.38 385.40 , 100.85 386.07 , 100.35 386.75 , 99.89 387.43 , 99.46 388.10 , 99.06 388.78 , 98.68 389.45 , 98.32 390.13 , 97.98 390.80 , 97.66 391.48 , 97.35 392.16 , 97.06 392.83 , 96.79 393.51 , 96.53 394.18 , 96.28 394.86 , 96.05 395.54 , 95.83 396.21 , 95.62 396.89 , 95.42 397.56 , 95.23 398.24 , 95.05 398.91 , 94.88 399.59 , 94.72 400.27 , 94.57 400.94 , 94.43 401.62 , 94.30 402.29 , 94.18 402.97 , 94.06 403.65 , 93.96 404.32 , 93.86 405.00 , 93.77 405.67 , 93.69 406.35 , 93.61 407.02 , 93.55 407.70 , 93.49 408.38 , 93.44 409.05 , 93.39 409.73 , 93.36 410.40 , 93.33 411.08 , 93.30 411.76 , 93.29 412.43 , 93.28 413.11 , 93.28 413.78 , 93.29 414.46 , 93.30 415.13 , 93.33 415.81 , 93.36 416.49 , 93.39 417.16 , 93.44 417.84 , 93.49 418.51 , 93.55 419.19 , 93.61 419.87 , 93.69 420.54 , 93.77 421.22 , 93.86 421.89 , 93.96 422.57 , 94.06 423.24 , 94.18 423.92 , 94.30 424.60 , 94.43 425.27 , 94.57 425.95 , 94.72 426.62 , 94.88 427.30 , 95.05 427.98 , 95.23 428.65 , 95.42 429.33 , 95.62 430.00 , 95.83 430.68 , 96.05 431.35 , 96.28 432.03 , 96.53 432.71 , 96.79 433.38 , 97.06 434.06 , 97.35 434.73 , 97.66 435.41 , 97.98 436.09 , 98.32 436.76 , 98.68 437.44 , 99.06 438.11 , 99.46 438.79 , 99.89 439.46 , 100.35 440.14 , 100.85 440.82 , 101.38 441.49 , 101.96 442.17 , 102.59 442.84 , 103.29 443.52 , 104.07 444.19 , 104.98 444.87 , 106.07 445.55 , 107.52 446.22 , 111.08 446.22 , 111.08 445.55 , 114.64 444.87 , 116.09 444.19 , 117.18 443.52 , 118.09 442.84 , 118.88 442.17 , 119.58 441.49 , 120.21 440.82 , 120.78 440.14 , 121.32 439.46 , 121.81 438.79 , 122.27 438.11 , 122.70 437.44 , 123.11 436.76 , 123.49 436.09 , 123.85 435.41 , 124.19 434.73 , 124.51 434.06 , 124.81 433.38 , 125.10 432.71 , 125.38 432.03 , 125.64 431.35 , 125.88 430.68 , 126.12 430.00 , 126.34 429.33 , 126.55 428.65 , 126.75 427.98 , 126.94 427.30 , 127.11 426.62 , 127.28 425.95 , 127.44 425.27 , 127.59 424.60 , 127.73 423.92 , 127.86 423.24 , 127.99 422.57 , 128.10 421.89 , 128.21 421.22 , 128.30 420.54 , 128.39 419.87 , 128.48 419.19 , 128.55 418.51 , 128.62 417.84 , 128.68 417.16 , 128.73 416.49 , 128.77 415.81 , 128.81 415.13 , 128.84 414.46 , 128.86 413.78 , 128.87 413.11 , 128.88 412.43 , 128.88 411.76 , 128.87 411.08 , 128.86 410.40 , 128.84 409.73 , 128.81 409.05 , 128.77 408.38 , 128.73 407.70 , 128.68 407.02 , 128.62 406.35 , 128.55 405.67 , 128.48 405.00 , 128.39 404.32 , 128.30 403.65 , 128.21 402.97 , 128.10 402.29 , 127.99 401.62 , 127.86 400.94 , 127.73 400.27 , 127.59 399.59 , 127.44 398.91 , 127.28 398.24 , 127.11 397.56 , 126.94 396.89 , 126.75 396.21 , 126.55 395.54 , 126.34 394.86 , 126.12 394.18 , 125.88 393.51 , 125.64 392.83 , 125.38 392.16 , 125.10 391.48 , 124.81 390.80 , 124.51 390.13 , 124.19 389.45 , 123.85 388.78 , 123.49 388.10 , 123.11 387.43 , 122.70 386.75 , 122.27 386.07 , 121.81 385.40 , 121.32 384.72 , 120.78 384.05 , 120.21 383.37 , 119.58 382.69 , 118.88 382.02 , 118.09 381.34 , 117.18 380.67 , 116.09 379.99 , 114.64 379.32 , 111.08 379.32 , 111.08 " style="stroke-width:1;stroke:#000000;fill:#000000;stroke-opacity:1.000000;fill-opacity:0.000000"/>
<text transform="translate(395.72,105.70) "  style="font-size:6" >GO:0005488</text>
<text transform="translate(402.85,111.08) "  style="font-size:6" >binding</text>
<text transform="translate(401.95,116.46) "  style="font-size:6" >0.27482</text>
<text transform="translate(401.34,121.84) "  style="font-size:6" >37 / 287</text>
<rect x="70.80" y="378.08" width="66.91" height="35.60" style="stroke-width:1;stroke:#ADD8E6;fill:#FF8000;stroke-opacity:1.000000;fill-opacity:1.000000" />
<text transform="translate(87.20,390.50) "  style="font-size:6" >GO:0016407</text>
<text transform="translate(74.76,395.88) "  style="font-size:6" >acetyltransferase ac...</text>
<text transform="translate(93.44,401.26) "  style="font-size:6" >0.00641</text>
<text transform="translate(97.77,406.64) "  style="font-size:6" >3 / 4</text>
<rect x="276.48" y="378.08" width="66.91" height="35.60" style="stroke-width:1;stroke:#ADD8E6;fill:#FF0000;stroke-opacity:1.000000;fill-opacity:1.000000" />
<text transform="translate(292.88,390.50) "  style="font-size:6" >GO:0016408</text>
<text transform="translate(279.97,395.88) "  style="font-size:6" >C-acyltransferase ac...</text>
<text transform="translate(299.11,401.26) "  style="font-size:6" >0.00175</text>
<text transform="translate(303.45,406.64) "  style="font-size:6" >3 / 3</text>
<rect x="70.80" y="449.28" width="66.91" height="35.60" style="stroke-width:1;stroke:#ADD8E6;fill:#FF0000;stroke-opacity:1.000000;fill-opacity:1.000000" />
<text transform="translate(87.20,461.70) "  style="font-size:6" >GO:0016453</text>
<text transform="translate(74.59,467.08) "  style="font-size:6" >C-acetyltransferase ...</text>
<text transform="translate(93.44,472.46) "  style="font-size:6" >0.00175</text>
<text transform="translate(97.77,477.84) "  style="font-size:6" >3 / 3</text>
<polygon points="173.64 , 182.28 174.32 , 178.72 174.99 , 177.27 175.67 , 176.18 176.34 , 175.27 177.02 , 174.49 177.69 , 173.79 178.37 , 173.16 179.05 , 172.58 179.72 , 172.05 180.40 , 171.55 181.07 , 171.09 181.75 , 170.66 182.43 , 170.26 183.10 , 169.88 183.78 , 169.52 184.45 , 169.18 185.13 , 168.86 185.80 , 168.55 186.48 , 168.26 187.16 , 167.99 187.83 , 167.73 188.51 , 167.48 189.18 , 167.25 189.86 , 167.02 190.54 , 166.81 191.21 , 166.61 191.89 , 166.43 192.56 , 166.25 193.24 , 166.08 193.91 , 165.92 194.59 , 165.77 195.27 , 165.63 195.94 , 165.50 196.62 , 165.38 197.29 , 165.26 197.97 , 165.16 198.64 , 165.06 199.32 , 164.97 200.00 , 164.89 200.67 , 164.81 201.35 , 164.75 202.02 , 164.69 202.70 , 164.64 203.38 , 164.59 204.05 , 164.55 204.73 , 164.53 205.40 , 164.50 206.08 , 164.49 206.75 , 164.48 207.43 , 164.48 208.11 , 164.49 208.78 , 164.50 209.46 , 164.53 210.13 , 164.55 210.81 , 164.59 211.49 , 164.64 212.16 , 164.69 212.84 , 164.75 213.51 , 164.81 214.19 , 164.89 214.86 , 164.97 215.54 , 165.06 216.22 , 165.16 216.89 , 165.26 217.57 , 165.38 218.24 , 165.50 218.92 , 165.63 219.60 , 165.77 220.27 , 165.92 220.95 , 166.08 221.62 , 166.25 222.30 , 166.43 222.97 , 166.61 223.65 , 166.81 224.33 , 167.02 225.00 , 167.25 225.68 , 167.48 226.35 , 167.73 227.03 , 167.99 227.71 , 168.26 228.38 , 168.55 229.06 , 168.86 229.73 , 169.18 230.41 , 169.52 231.08 , 169.88 231.76 , 170.26 232.44 , 170.66 233.11 , 171.09 233.79 , 171.55 234.46 , 172.05 235.14 , 172.58 235.82 , 173.16 236.49 , 173.79 237.17 , 174.49 237.84 , 175.27 238.52 , 176.18 239.19 , 177.27 239.87 , 178.72 240.55 , 182.28 240.55 , 182.28 239.87 , 185.84 239.19 , 187.29 238.52 , 188.38 237.84 , 189.29 237.17 , 190.08 236.49 , 190.78 235.82 , 191.41 235.14 , 191.98 234.46 , 192.52 233.79 , 193.01 233.11 , 193.47 232.44 , 193.90 231.76 , 194.30 231.08 , 194.69 230.41 , 195.05 229.73 , 195.39 229.06 , 195.71 228.38 , 196.01 227.71 , 196.30 227.03 , 196.57 226.35 , 196.83 225.68 , 197.08 225.00 , 197.32 224.33 , 197.54 223.65 , 197.75 222.97 , 197.95 222.30 , 198.14 221.62 , 198.31 220.95 , 198.48 220.27 , 198.64 219.60 , 198.79 218.92 , 198.93 218.24 , 199.06 217.57 , 199.19 216.89 , 199.30 216.22 , 199.41 215.54 , 199.50 214.86 , 199.59 214.19 , 199.68 213.51 , 199.75 212.84 , 199.82 212.16 , 199.88 211.49 , 199.93 210.81 , 199.97 210.13 , 200.01 209.46 , 200.04 208.78 , 200.06 208.11 , 200.07 207.43 , 200.08 206.75 , 200.08 206.08 , 200.07 205.40 , 200.06 204.73 , 200.04 204.05 , 200.01 203.38 , 199.97 202.70 , 199.93 202.02 , 199.88 201.35 , 199.82 200.67 , 199.75 200.00 , 199.68 199.32 , 199.59 198.64 , 199.50 197.97 , 199.41 197.29 , 199.30 196.62 , 199.19 195.94 , 199.06 195.27 , 198.93 194.59 , 198.79 193.91 , 198.64 193.24 , 198.48 192.56 , 198.31 191.89 , 198.14 191.21 , 197.95 190.54 , 197.75 189.86 , 197.54 189.18 , 197.32 188.51 , 197.08 187.83 , 196.83 187.16 , 196.57 186.48 , 196.30 185.80 , 196.01 185.13 , 195.71 184.45 , 195.39 183.78 , 195.05 183.10 , 194.69 182.43 , 194.30 181.75 , 193.90 181.07 , 193.47 180.40 , 193.01 179.72 , 192.52 179.05 , 191.98 178.37 , 191.41 177.69 , 190.78 177.02 , 190.08 176.34 , 189.29 175.67 , 188.38 174.99 , 187.29 174.32 , 185.84 173.64 , 182.28 " style="stroke-width:1;stroke:#FFFFFF;fill:#FFFF00;stroke-opacity:0.000000;fill-opacity:1.000000" />
<polyline points="173.64 , 182.28 174.32 , 178.72 174.99 , 177.27 175.67 , 176.18 176.34 , 175.27 177.02 , 174.49 177.69 , 173.79 178.37 , 173.16 179.05 , 172.58 179.72 , 172.05 180.40 , 171.55 181.07 , 171.09 181.75 , 170.66 182.43 , 170.26 183.10 , 169.88 183.78 , 169.52 184.45 , 169.18 185.13 , 168.86 185.80 , 168.55 186.48 , 168.26 187.16 , 167.99 187.83 , 167.73 188.51 , 167.48 189.18 , 167.25 189.86 , 167.02 190.54 , 166.81 191.21 , 166.61 191.89 , 166.43 192.56 , 166.25 193.24 , 166.08 193.91 , 165.92 194.59 , 165.77 195.27 , 165.63 195.94 , 165.50 196.62 , 165.38 197.29 , 165.26 197.97 , 165.16 198.64 , 165.06 199.32 , 164.97 200.00 , 164.89 200.67 , 164.81 201.35 , 164.75 202.02 , 164.69 202.70 , 164.64 203.38 , 164.59 204.05 , 164.55 204.73 , 164.53 205.40 , 164.50 206.08 , 164.49 206.75 , 164.48 207.43 , 164.48 208.11 , 164.49 208.78 , 164.50 209.46 , 164.53 210.13 , 164.55 210.81 , 164.59 211.49 , 164.64 212.16 , 164.69 212.84 , 164.75 213.51 , 164.81 214.19 , 164.89 214.86 , 164.97 215.54 , 165.06 216.22 , 165.16 216.89 , 165.26 217.57 , 165.38 218.24 , 165.50 218.92 , 165.63 219.60 , 165.77 220.27 , 165.92 220.95 , 166.08 221.62 , 166.25 222.30 , 166.43 222.97 , 166.61 223.65 , 166.81 224.33 , 167.02 225.00 , 167.25 225.68 , 167.48 226.35 , 167.73 227.03 , 167.99 227.71 , 168.26 228.38 , 168.55 229.06 , 168.86 229.73 , 169.18 230.41 , 169.52 231.08 , 169.88 231.76 , 170.26 232.44 , 170.66 233.11 , 171.09 233.79 , 171.55 234.46 , 172.05 235.14 , 172.58 235.82 , 173.16 236.49 , 173.79 237.17 , 174.49 237.84 , 175.27 238.52 , 176.18 239.19 , 177.27 239.87 , 178.72 240.55 , 182.28 240.55 , 182.28 239.87 , 185.84 239.19 , 187.29 238.52 , 188.38 237.84 , 189.29 237.17 , 190.08 236.49 , 190.78 235.82 , 191.41 235.14 , 191.98 234.46 , 192.52 233.79 , 193.01 233.11 , 193.47 232.44 , 193.90 231.76 , 194.30 231.08 , 194.69 230.41 , 195.05 229.73 , 195.39 229.06 , 195.71 228.38 , 196.01 227.71 , 196.30 227.03 , 196.57 226.35 , 196.83 225.68 , 197.08 225.00 , 197.32 224.33 , 197.54 223.65 , 197.75 222.97 , 197.95 222.30 , 198.14 221.62 , 198.31 220.95 , 198.48 220.27 , 198.64 219.60 , 198.79 218.92 , 198.93 218.24 , 199.06 217.57 , 199.19 216.89 , 199.30 216.22 , 199.41 215.54 , 199.50 214.86 , 199.59 214.19 , 199.68 213.51 , 199.75 212.84 , 199.82 212.16 , 199.88 211.49 , 199.93 210.81 , 199.97 210.13 , 200.01 209.46 , 200.04 208.78 , 200.06 208.11 , 200.07 207.43 , 200.08 206.75 , 200.08 206.08 , 200.07 205.40 , 200.06 204.73 , 200.04 204.05 , 200.01 203.38 , 199.97 202.70 , 199.93 202.02 , 199.88 201.35 , 199.82 200.67 , 199.75 200.00 , 199.68 199.32 , 199.59 198.64 , 199.50 197.97 , 199.41 197.29 , 199.30 196.62 , 199.19 195.94 , 199.06 195.27 , 198.93 194.59 , 198.79 193.91 , 198.64 193.24 , 198.48 192.56 , 198.31 191.89 , 198.14 191.21 , 197.95 190.54 , 197.75 189.86 , 197.54 189.18 , 197.32 188.51 , 197.08 187.83 , 196.83 187.16 , 196.57 186.48 , 196.30 185.80 , 196.01 185.13 , 195.71 184.45 , 195.39 183.78 , 195.05 183.10 , 194.69 182.43 , 194.30 181.75 , 193.90 181.07 , 193.47 180.40 , 193.01 179.72 , 192.52 179.05 , 191.98 178.37 , 191.41 177.69 , 190.78 177.02 , 190.08 176.34 , 189.29 175.67 , 188.38 174.99 , 187.29 174.32 , 185.84 173.64 , 182.28 173.64 , 182.28 " style="stroke-width:1;stroke:#000000;fill:#000000;stroke-opacity:1.000000;fill-opacity:0.000000"/>
<text transform="translate(190.04,176.90) "  style="font-size:6" >GO:0016740</text>
<text transform="translate(181.44,182.28) "  style="font-size:6" >transferase activity</text>
<text transform="translate(196.28,187.66) "  style="font-size:6" >0.08028</text>
<text transform="translate(198.96,193.04) "  style="font-size:6" >7 / 32</text>
<rect x="173.64" y="235.68" width="66.91" height="35.60" style="stroke-width:1;stroke:#ADD8E6;fill:#FF8000;stroke-opacity:1.000000;fill-opacity:1.000000" />
<text transform="translate(190.04,248.10) "  style="font-size:6" >GO:0016746</text>
<text transform="translate(178.69,253.48) "  style="font-size:6" >transferase activity...</text>
<text transform="translate(196.28,258.86) "  style="font-size:6" >0.00971</text>
<text transform="translate(200.61,264.24) "  style="font-size:6" >4 / 8</text>
<rect x="173.64" y="306.88" width="66.91" height="35.60" style="stroke-width:1;stroke:#ADD8E6;fill:#FF8000;stroke-opacity:1.000000;fill-opacity:1.000000" />
<text transform="translate(190.04,319.30) "  style="font-size:6" >GO:0016747</text>
<text transform="translate(178.69,324.68) "  style="font-size:6" >transferase activity...</text>
<text transform="translate(196.28,330.06) "  style="font-size:6" >0.00641</text>
<text transform="translate(200.61,335.44) "  style="font-size:6" >3 / 4</text>
<polyline points="288.87 , 54.72 284.67 , 57.50 280.29 , 60.48 275.77 , 63.63 271.13 , 66.91 266.41 , 70.29 261.66 , 73.73 256.91 , 77.18 252.19 , 80.63 247.55 , 84.03 243.02 , 87.35 " style="stroke-width:1;stroke:#000000;fill:#000000;stroke-opacity:1.000000;fill-opacity:0.000000"/>
<line x1="247.55" y1="84.03" x2="243.02" y2="87.35" style="stroke-width:1;stroke:#000000;fill:#000000;stroke-opacity:1.000000;fill-opacity:0.000000"/>
<polyline points="248.75 , 74.36 243.02 , 87.35 257.14 , 85.81 " style="stroke-width:1;stroke:#000000;fill:#000000;stroke-opacity:1.000000;fill-opacity:0.000000"/>
<polyline points="330.99 , 54.72 335.59 , 57.82 340.44 , 61.17 345.48 , 64.71 350.66 , 68.39 355.93 , 72.14 361.24 , 75.93 366.53 , 79.70 371.75 , 83.39 376.86 , 86.94 381.79 , 90.32 " style="stroke-width:1;stroke:#000000;fill:#000000;stroke-opacity:1.000000;fill-opacity:0.000000"/>
<line x1="376.86" y1="86.94" x2="381.79" y2="90.32" style="stroke-width:1;stroke:#000000;fill:#000000;stroke-opacity:1.000000;fill-opacity:0.000000"/>
<polyline points="367.64 , 89.24 381.79 , 90.32 375.65 , 77.52 " style="stroke-width:1;stroke:#000000;fill:#000000;stroke-opacity:1.000000;fill-opacity:0.000000"/>
<polyline points="207.09 , 129.87 207.09 , 132.03 207.09 , 134.34 207.09 , 136.77 207.09 , 139.28 207.09 , 141.86 207.09 , 144.47 207.09 , 147.07 207.09 , 149.65 207.09 , 152.16 207.09 , 154.59 " style="stroke-width:1;stroke:#000000;fill:#000000;stroke-opacity:1.000000;fill-opacity:0.000000"/>
<line x1="207.09" y1="152.16" x2="207.09" y2="154.59" style="stroke-width:1;stroke:#000000;fill:#000000;stroke-opacity:1.000000;fill-opacity:0.000000"/>
<polyline points="199.99 , 142.30 207.09 , 154.59 214.19 , 142.30 " style="stroke-width:1;stroke:#000000;fill:#000000;stroke-opacity:1.000000;fill-opacity:0.000000"/>
<polyline points="283.91 , 485.87 280.09 , 488.33 276.08 , 490.94 271.92 , 493.68 267.66 , 496.53 263.31 , 499.46 258.93 , 502.46 254.55 , 505.48 250.21 , 508.52 245.94 , 511.55 241.79 , 514.54 " style="stroke-width:1;stroke:#000000;fill:#000000;stroke-opacity:1.000000;fill-opacity:0.000000"/>
<line x1="245.94" y1="511.55" x2="241.79" y2="514.54" style="stroke-width:1;stroke:#000000;fill:#000000;stroke-opacity:1.000000;fill-opacity:0.000000"/>
<polyline points="247.62 , 501.60 241.79 , 514.54 255.91 , 513.12 " style="stroke-width:1;stroke:#000000;fill:#000000;stroke-opacity:1.000000;fill-opacity:0.000000"/>
<polyline points="412.77 , 129.87 412.77 , 132.03 412.77 , 134.34 412.77 , 136.77 412.77 , 139.28 412.77 , 141.86 412.77 , 144.47 412.77 , 147.07 412.77 , 149.65 412.77 , 152.16 412.77 , 154.59 " style="stroke-width:1;stroke:#000000;fill:#000000;stroke-opacity:1.000000;fill-opacity:0.000000"/>
<line x1="412.77" y1="152.16" x2="412.77" y2="154.59" style="stroke-width:1;stroke:#000000;fill:#000000;stroke-opacity:1.000000;fill-opacity:0.000000"/>
<polyline points="405.67 , 142.30 412.77 , 154.59 419.87 , 142.30 " style="stroke-width:1;stroke:#000000;fill:#000000;stroke-opacity:1.000000;fill-opacity:0.000000"/>
<polyline points="441.27 , 120.97 452.00 , 124.78 463.97 , 129.03 476.89 , 133.63 490.53 , 138.47 504.61 , 143.47 518.88 , 148.52 533.07 , 153.55 546.93 , 158.44 560.19 , 163.10 572.60 , 167.45 " style="stroke-width:1;stroke:#000000;fill:#000000;stroke-opacity:1.000000;fill-opacity:0.000000"/>
<line x1="560.19" y1="163.10" x2="572.60" y2="167.45" style="stroke-width:1;stroke:#000000;fill:#000000;stroke-opacity:1.000000;fill-opacity:0.000000"/>
<polyline points="558.65 , 170.08 572.60 , 167.45 563.34 , 156.68 " style="stroke-width:1;stroke:#000000;fill:#000000;stroke-opacity:1.000000;fill-opacity:0.000000"/>
<polyline points="104.25 , 414.67 104.25 , 416.83 104.25 , 419.14 104.25 , 421.57 104.25 , 424.08 104.25 , 426.66 104.25 , 429.26 104.25 , 431.87 104.25 , 434.45 104.25 , 436.96 104.25 , 439.39 " style="stroke-width:1;stroke:#000000;fill:#000000;stroke-opacity:1.000000;fill-opacity:0.000000"/>
<line x1="104.25" y1="436.96" x2="104.25" y2="439.39" style="stroke-width:1;stroke:#000000;fill:#000000;stroke-opacity:1.000000;fill-opacity:0.000000"/>
<polyline points="97.16 , 427.09 104.25 , 439.39 111.35 , 427.09 " style="stroke-width:1;stroke:#000000;fill:#000000;stroke-opacity:1.000000;fill-opacity:0.000000"/>
<polyline points="309.93 , 414.67 309.93 , 416.83 309.93 , 419.14 309.93 , 421.57 309.93 , 424.08 309.93 , 426.66 309.93 , 429.26 309.93 , 431.87 309.93 , 434.45 309.93 , 436.96 309.93 , 439.39 " style="stroke-width:1;stroke:#000000;fill:#000000;stroke-opacity:1.000000;fill-opacity:0.000000"/>
<line x1="309.93" y1="436.96" x2="309.93" y2="439.39" style="stroke-width:1;stroke:#000000;fill:#000000;stroke-opacity:1.000000;fill-opacity:0.000000"/>
<polyline points="302.83 , 427.09 309.93 , 439.39 317.03 , 427.09 " style="stroke-width:1;stroke:#000000;fill:#000000;stroke-opacity:1.000000;fill-opacity:0.000000"/>
<polyline points="276.48 , 407.75 265.51 , 411.50 253.57 , 415.60 240.87 , 419.97 227.63 , 424.55 214.06 , 429.25 200.38 , 434.02 186.81 , 438.77 173.55 , 443.44 160.83 , 447.96 148.86 , 452.25 " style="stroke-width:1;stroke:#000000;fill:#000000;stroke-opacity:1.000000;fill-opacity:0.000000"/>
<line x1="160.83" y1="447.96" x2="148.86" y2="452.25" style="stroke-width:1;stroke:#000000;fill:#000000;stroke-opacity:1.000000;fill-opacity:0.000000"/>
<polyline points="158.04 , 441.41 148.86 , 452.25 162.83 , 454.78 " style="stroke-width:1;stroke:#000000;fill:#000000;stroke-opacity:1.000000;fill-opacity:0.000000"/>
<polyline points="130.27 , 485.87 134.06 , 488.33 137.98 , 490.94 141.99 , 493.68 146.09 , 496.53 150.25 , 499.46 154.45 , 502.46 158.66 , 505.48 162.86 , 508.52 167.04 , 511.55 171.16 , 514.54 " style="stroke-width:1;stroke:#000000;fill:#000000;stroke-opacity:1.000000;fill-opacity:0.000000"/>
<line x1="167.04" y1="511.55" x2="171.16" y2="514.54" style="stroke-width:1;stroke:#000000;fill:#000000;stroke-opacity:1.000000;fill-opacity:0.000000"/>
<polyline points="157.04 , 513.07 171.16 , 514.54 165.38 , 501.58 " style="stroke-width:1;stroke:#000000;fill:#000000;stroke-opacity:1.000000;fill-opacity:0.000000"/>
<polyline points="207.09 , 201.07 207.09 , 203.23 207.09 , 205.54 207.09 , 207.97 207.09 , 210.48 207.09 , 213.06 207.09 , 215.67 207.09 , 218.27 207.09 , 220.85 207.09 , 223.36 207.09 , 225.79 " style="stroke-width:1;stroke:#000000;fill:#000000;stroke-opacity:1.000000;fill-opacity:0.000000"/>
<line x1="207.09" y1="223.36" x2="207.09" y2="225.79" style="stroke-width:1;stroke:#000000;fill:#000000;stroke-opacity:1.000000;fill-opacity:0.000000"/>
<polyline points="199.99 , 213.50 207.09 , 225.79 214.19 , 213.50 " style="stroke-width:1;stroke:#000000;fill:#000000;stroke-opacity:1.000000;fill-opacity:0.000000"/>
<polyline points="207.09 , 272.27 207.09 , 274.43 207.09 , 276.74 207.09 , 279.17 207.09 , 281.68 207.09 , 284.26 207.09 , 286.86 207.09 , 289.47 207.09 , 292.05 207.09 , 294.56 207.09 , 296.99 " style="stroke-width:1;stroke:#000000;fill:#000000;stroke-opacity:1.000000;fill-opacity:0.000000"/>
<line x1="207.09" y1="294.56" x2="207.09" y2="296.99" style="stroke-width:1;stroke:#000000;fill:#000000;stroke-opacity:1.000000;fill-opacity:0.000000"/>
<polyline points="199.99 , 284.70 207.09 , 296.99 214.19 , 284.70 " style="stroke-width:1;stroke:#000000;fill:#000000;stroke-opacity:1.000000;fill-opacity:0.000000"/>
<polyline points="181.07 , 343.47 177.25 , 345.93 173.24 , 348.54 169.09 , 351.28 164.82 , 354.13 160.47 , 357.07 156.10 , 360.06 151.72 , 363.09 147.37 , 366.13 143.10 , 369.15 138.95 , 372.15 " style="stroke-width:1;stroke:#000000;fill:#000000;stroke-opacity:1.000000;fill-opacity:0.000000"/>
<line x1="143.10" y1="369.15" x2="138.95" y2="372.15" style="stroke-width:1;stroke:#000000;fill:#000000;stroke-opacity:1.000000;fill-opacity:0.000000"/>
<polyline points="144.78 , 359.20 138.95 , 372.15 153.07 , 370.72 " style="stroke-width:1;stroke:#000000;fill:#000000;stroke-opacity:1.000000;fill-opacity:0.000000"/>
<polyline points="233.11 , 343.47 236.90 , 345.93 240.81 , 348.54 244.83 , 351.28 248.93 , 354.13 253.09 , 357.07 257.29 , 360.06 261.50 , 363.09 265.70 , 366.13 269.88 , 369.15 274.00 , 372.15 " style="stroke-width:1;stroke:#000000;fill:#000000;stroke-opacity:1.000000;fill-opacity:0.000000"/>
<line x1="269.88" y1="369.15" x2="274.00" y2="372.15" style="stroke-width:1;stroke:#000000;fill:#000000;stroke-opacity:1.000000;fill-opacity:0.000000"/>
<polyline points="259.88 , 370.67 274.00 , 372.15 268.22 , 359.18 " style="stroke-width:1;stroke:#000000;fill:#000000;stroke-opacity:1.000000;fill-opacity:0.000000"/>
</svg>
